<svg xmlns="http://www.w3.org/2000/svg" xmlns:xlink="http://www.w3.org/1999/xlink" width="62" height="62" viewBox="0 0 62 62">
  <defs>
    <linearGradient id="linear-gradient" x1="0.5" y1="0.861" x2="0.5" y2="0.146" gradientUnits="objectBoundingBox">
      <stop offset="0" stop-color="#fff"/>
      <stop offset="0.583" stop-color="#fee3f3"/>
      <stop offset="1" stop-color="#f5e9fd"/>
    </linearGradient>
  </defs>
  <g id="Facebook" transform="translate(1 1)">
    <g id="_2744503357600">
      <rect id="Rectangle_8" data-name="Rectangle 8" width="62" height="62" rx="18" transform="translate(-1 -1)" fill="url(#linear-gradient)"/>
      <path id="Path_41" data-name="Path 41" d="M3543.081,2465.8H3540.1v3.306l2.981.007a.546.546,0,0,1,.547.547l.007,11.793h3.3v-11.793a.553.553,0,0,1,.553-.553h3.86V2465.8h-3.86a.553.553,0,0,1-.553-.553,31.981,31.981,0,0,1,.091-3.254,2.836,2.836,0,0,1,.755-1.894.169.169,0,0,0,.039-.032,2.761,2.761,0,0,1,1.594-.586,18.066,18.066,0,0,1,1.933-.072v-3.307a42.24,42.24,0,0,0-4.484.143,3.517,3.517,0,0,0-2.278.885,4.424,4.424,0,0,0-.82,2.564c-.137,1.321-.137,3.137-.137,5.552A.551.551,0,0,1,3543.081,2465.8Zm-3.528-1.106h2.974c0-2.154.013-3.808.143-5.1a5.37,5.37,0,0,1,1.1-3.2,4.441,4.441,0,0,1,2.961-1.243,47.253,47.253,0,0,1,5.161-.156.553.553,0,0,1,.553.553v4.406a.553.553,0,0,1-.553.553,23.629,23.629,0,0,0-2.363.065,1.814,1.814,0,0,0-.983.313l-.02.02a1.875,1.875,0,0,0-.41,1.211,25.118,25.118,0,0,0-.078,2.577h3.853a.553.553,0,0,1,.553.553v4.413a.551.551,0,0,1-.553.547h-3.853V2482h-.007a.551.551,0,0,1-.547.553l-4.406-.006a.546.546,0,0,1-.547-.547l-.007-11.794h-2.974a.551.551,0,0,1-.553-.547v-4.413A.553.553,0,0,1,3539.553,2464.7Z" transform="translate(-3515.967 -2439.021)" fill="#011627"/>
    </g>
  </g>
</svg>
