<svg xmlns="http://www.w3.org/2000/svg" xmlns:xlink="http://www.w3.org/1999/xlink" width="379.822" height="378.952" viewBox="0 0 379.822 378.952">
  <defs>
    <linearGradient id="linear-gradient" x1="0.5" y1="0.819" x2="0.5" gradientUnits="objectBoundingBox">
      <stop offset="0" stop-color="#fff"/>
      <stop offset="0.52" stop-color="#ffe6f4"/>
      <stop offset="1" stop-color="#f3ebff"/>
    </linearGradient>
  </defs>
  <g id="ProfileImage" transform="translate(-1013 -296)">
    <path id="Subtraction_1" data-name="Subtraction 1" d="M171.618,378.952a189.355,189.355,0,1,1,82.7-10.331c-.719-1.362-1.338-2.547-1.9-3.625-1.691-3.4-3.193-6.554-4.591-9.649-1.639-3.627-3.158-7.276-4.513-10.845a139.4,139.4,0,0,1-6.56-22.433,100.83,100.83,0,0,1-1.588-11.516c-.147-1.907-.229-3.856-.245-5.792,0-.947,0-1.926.035-2.889.021-.577.049-1.17.075-1.743v-.022c.018-.386.036-.772.052-1.154l.292-5.875.394-5.865.1-1.46.125-1.459.249-2.919.254-2.919.291-2.919c.851-8.289,1.858-15.91,3.08-23.3l.481-2.9.517-2.886c.242-1.393.516-2.8.781-4.158q.157-.8.311-1.608c.373-1.944.805-3.9,1.218-5.733.163-.738.339-1.485.509-2.208l.019-.079.132-.562.348-1.413.178-.7.09-.351a2.771,2.771,0,0,0,.085-.542c0-.057,0-.116,0-.179.245-.341.494-.7.74-1.056a37.735,37.735,0,0,0,3.535-6.409,42.984,42.984,0,0,0,2.216-6.938c.1-.418.2-.855.3-1.3.048.073.1.149.161.227.072.1.152.211.26.35a4.517,4.517,0,0,0,1.46,1.261c.088.043.172.083.233.108a1.433,1.433,0,0,0,.14.053l.125.047a4.381,4.381,0,0,0,.476.122,4.668,4.668,0,0,0,.944.1h.022a5.32,5.32,0,0,0,1.842-.363,8.508,8.508,0,0,0,1.539-.767,15.041,15.041,0,0,0,2.516-2.03,26.686,26.686,0,0,0,2.1-2.336c.35-.433.659-.837.946-1.235l.453-.63.219-.324.111-.164.055-.084.027-.044.018-.022.007-.012.008-.014c1.549-2.421,3.206-4.992,4.926-7.461.241-.348.49-.7.731-1.036l.012-.017.005-.008c.177-.249.361-.506.539-.76.283-.4.583-.806.872-1.2l0,0q.221-.3.442-.6c.782-1.031,1.63-2.111,2.75-3.5l.044-.055c.45-.565.916-1.148,1.357-1.769a18.694,18.694,0,0,0,1.273-2.007,33.439,33.439,0,0,0,1.865-4.244,66.048,66.048,0,0,0,2.558-8.759,75.258,75.258,0,0,0,1.412-8.989,71.328,71.328,0,0,0,.327-9.1c-.03-.847-.078-1.6-.146-2.3-.042-.391-.085-.775-.158-1.169a5.089,5.089,0,0,0-.149-.656,2.207,2.207,0,0,0-.082-.22l-.029-.063a.451.451,0,0,0-.041-.084l-.035-.057-.016-.046c-.014-.041-.028-.084-.055-.147l-.029-.064a.621.621,0,0,0-.044-.081l-.062-.1-.034-.052a.873.873,0,0,0-.082-.093,1.17,1.17,0,0,0-.09-.084.7.7,0,0,0-.135-.092,1.007,1.007,0,0,0-.489-.126h-.043a.938.938,0,0,0-.405.12,1.2,1.2,0,0,0-.2.148,1.364,1.364,0,0,0-.26.351c-.024.049-.047.1-.066.144l-.024.055-.04.09a1.715,1.715,0,0,1-.085.192l-.2.435a6.93,6.93,0,0,1-.522.92,4.759,4.759,0,0,1-.73.8c-.23.219-.49.453-.818.736-.974.837-2.087,1.7-3.5,2.72-1.1.793-2.338,1.623-3.677,2.467a49.352,49.352,0,0,0-5.508,3.069,38.607,38.607,0,0,0-5.056,3.844,30.538,30.538,0,0,0-4.283,4.727c-.25.337-.5.69-.733,1.05.019-.615.036-1.258.05-1.912.051-2.058.071-4.234.064-7.055-.007-2.69-.035-4.931-.088-7.051-.112-4.673-.356-9.412-.726-14.086-.175-2.328-.383-4.691-.619-7.023-.225-2.2-.488-4.432-.742-6.593l-.049-.414v-.07l-.021-.076a74.983,74.983,0,0,0-4.087-11.041,73,73,0,0,0-5.768-10.27,71.354,71.354,0,0,0-16.185-17.091A76.269,76.269,0,0,0,212.4,82.635c.038-.063.073-.124.109-.187l-.255.125c-1.635-.7-3.315-1.344-4.991-1.923a89.091,89.091,0,0,0-23.145-4.7c-1.969-.126-3.968-.19-5.941-.19a93.078,93.078,0,0,0-14.438,1.13c-3.359.528-6.723,1.225-10,2.071l-2.467.674-2.44.755c-1.474.483-3.183,1.054-4.819,1.708a85.867,85.867,0,0,0-18.05,9.581,73.149,73.149,0,0,0-8,6.422,65.724,65.724,0,0,0-6.951,7.575,55.8,55.8,0,0,0-5.547,8.668c-.793,1.536-1.5,3.056-2.157,4.644-.218.5-.419,1.007-.613,1.5-.106.268-.225.572-.344.862-.33.807-.614,1.622-.876,2.387-.22.626-.416,1.2-.6,1.754-1.019,2.921-1.909,5.917-2.644,8.9a96,96,0,0,0-1.9,9.926c-.236,1.687-.4,3.381-.566,5.019-.148,1.487-.275,3.09-.4,5.044a50.215,50.215,0,0,0-.175,5.089,42.78,42.78,0,0,0,.447,5.115,30.146,30.146,0,0,0,.9,4.175c-.247-.529-.471-1.07-.669-1.606A21.387,21.387,0,0,0,96.8,169.6l.021.064.21.629c.046.133.1.267.156.4.032.076.062.15.092.224l.254.619c.055.128.119.257.18.381.038.076.075.152.112.229l.554,1.126.257.52c.052.1.1.216.137.324l0,0c.026.068.054.137.083.2a13.538,13.538,0,0,1,.5,1.422,8.734,8.734,0,0,1-1.028-.8l-.155-.122-.14-.142-.292-.293-.292-.291c-.045-.046-.087-.1-.127-.144s-.087-.1-.132-.148c-.121-.147-.247-.3-.359-.427l-.033-.039-.125-.147-.47-.661a27.987,27.987,0,0,1-2.973-5.867h-.015A18.273,18.273,0,0,0,95.486,173l.47.747c.159.219.326.436.487.646l.005.007.028.036c.03.037.059.075.087.114l0,.006c.057.075.114.151.177.219l.292.317.291.317.149.16.08.07c-.438-.107-.859-.225-1.25-.349-.135-.106-.264-.212-.372-.3s-.2-.171-.3-.252c-.132-.107-.268-.216-.389-.333l-.657-.636a29.4,29.4,0,0,1-4.42-5.873l.9,1.614c.213.354.439.707.657,1.049l0,0,0,.006q.162.254.324.509c.234.371.5.727.761,1.071l.012.016c.1.137.21.279.313.419l.584.713.13.155a6.744,6.744,0,0,0,.487.545l.645.668a3.511,3.511,0,0,0,.26.258A18.7,18.7,0,0,1,91.2,172.76a20.023,20.023,0,0,1-3.311-2.92,14.863,14.863,0,0,1-1.079-1.261c-.11-.139-.234-.3-.357-.447-.177-.21-.33-.433-.478-.649-.06-.087-.118-.172-.178-.257l-.642-.922.554.979c.051.086.1.173.149.26l0,.009a7.066,7.066,0,0,0,.43.7,20.492,20.492,0,0,0,1.334,1.825,18.639,18.639,0,0,0,3.241,3.17l.922.674.975.584a10.73,10.73,0,0,0,1.007.54l.511.26c.114.058.233.106.349.152l.177.073c.131.052.26.1.386.156.219.09.446.183.679.268l1.013.33c.073.055.153.113.251.184a14.29,14.29,0,0,0,2.671,1.491c.03.263.053.518.067.759a11.79,11.79,0,0,1-.011,1.25l0,.016,0,.022a9.407,9.407,0,0,1-.213.987c-.048.177-.095.328-.143.461-.016.052-.033.1-.051.143l-.025.064a.618.618,0,0,1-.028.069l-.007.015-.018.038-.067.158c-.073.182-.147.372-.227.579-.272.264-.547.534-.813.794l-.011.011c-.271.266-.578.567-.881.86.5-.406,1.017-.845,1.582-1.341-.284.756-.559,1.551-.818,2.364-.32,1.008-.612,2.1-.893,3.345a45.564,45.564,0,0,0-1.022,6.85c-.076,1.043-.115,2.1-.114,3.139a42.117,42.117,0,0,0,.167,4.588,33,33,0,0,0,1.322,6.753,37.425,37.425,0,0,0,2.628,6.3c.1.182.2.368.291.548.164.313.332.633.509.941l.84,1.459c.179.3.362.594.523.857l.012.019.341.557c.237.388.553.9.891,1.415,1.2,1.867,2.437,3.726,3.636,5.524l.015.023c1.242,1.863,2.447,3.688,3.527,5.525.578.98,1.089,1.932,1.52,2.83.3.633.6,1.307.878,1.96l.006.013c.144.332.292.675.442,1.012.9,2.075,1.852,4.123,2.748,6.028s1.867,3.911,2.89,5.969c.877,1.766,1.926,3.848,3.051,5.895,2.039,3.709,4.321,7.395,6.974,11.268l.008.011c1.232,1.8,2.506,3.662,3.9,5.436a23.607,23.607,0,0,0,2.283,2.552,13.581,13.581,0,0,0,2.8,2.114,17.164,17.164,0,0,0,6.571,2.043c.85.083,1.707.125,2.548.125a26.054,26.054,0,0,0,4.231-.346,50.442,50.442,0,0,0,8.795-2.264,45.108,45.108,0,0,0,4.48-1.134,91.427,91.427,0,0,0,9.214-3.415l.521-.228.019.114c.671,3.894,1.167,7.879,1.6,11.606.447,3.821.807,7.563,1.2,11.707.584,6.28,1.1,12.681,1.59,18.871v.008q.185,2.316.371,4.633c.309,3.773.642,7.792,1.031,11.8l.292,2.943c.093.884.148,1.816.163,2.77a49.121,49.121,0,0,1-.242,5.64,97.8,97.8,0,0,1-1.913,11.359c-.439,1.972-.9,3.879-1.364,5.667l-.168.645c-.427,1.643-.869,3.341-1.329,5.011s-1.012,3.64-1.623,5.593c-.616,1.971-1.219,3.762-1.842,5.477-.257.708-.536,1.445-.829,2.193ZM178,273.677h0l0-.022v-.006l-.005-.03c5.354-2.839,10.793-5.815,16.629-9.1,5.96-3.353,11.8-6.76,17.358-10.124,6.685-4.047,12.074-7.5,16.958-10.88,3.331-2.322,5.842-4.2,8.144-6.083.829-.681,1.551-1.3,2.207-1.886-.052.244-.109.51-.177.837C224.845,249,185.7,269.663,178,273.677ZM99.715,177.31h0a14.773,14.773,0,0,1-1.37-.662c.227.048.44.091.653.129l.025.018c.212.135.438.267.672.391l.01.061.011.063Z" transform="translate(1013 296)" fill="url(#linear-gradient)"/>
  </g>
</svg>
